<?xml version="1.0" encoding="UTF-8"?>
<svg width="138px" height="32px" viewBox="0 0 138 32" version="1.1" xmlns="http://www.w3.org/2000/svg" xmlns:xlink="http://www.w3.org/1999/xlink">
    <!-- Generator: Sketch 47.1 (45422) - http://www.bohemiancoding.com/sketch -->
    <title>Page 1</title>
    <desc>Created with Sketch.</desc>
    <defs>
        <polygon id="path-1" points="16.9382873 15.5999492 16.9382873 0.132012698 0.0311865455 0.132012698 0.0311865455 15.5999492"></polygon>
    </defs>
    <g id="Page-1" stroke="none" stroke-width="1" fill="none" fill-rule="evenodd">
        <g id="应用" transform="translate(-360.000000, -23.000000)">
            <g id="Page-1" transform="translate(360.000000, 23.000000)">
                <path d="M54.3751055,18.8305888 L57.7180914,12.7858599 L58.575921,18.8305888 L54.3751055,18.8305888 Z M54.8533371,10 L46,26 L50.4076114,26 L52.3280063,22.5215646 L59.0989627,22.5215646 L59.5941913,26 L64,26 L61.7255025,10 L54.8533371,10 Z" id="Fill-1" fill="#F08C00"></path>
                <polygon id="Fill-2" fill="#F08C00" points="34.7298937 10 34 13.6931763 39.8166188 13.6931763 37.3838049 26 42.2137797 26 44.6433749 13.6931763 50.0408247 13.6931763 52 10"></polygon>
                <polygon id="Fill-3" fill="#F08C00" points="78.2472486 26 79 22.3063218 70.4256356 22.3063218 72.9360844 10 68.2639667 10 65 26"></polygon>
                <g id="Group-17">
                    <path d="M10.5407491,8.81244444 C10.8927982,8.84647619 10.9496618,9.18222222 10.9496618,9.18222222 L11.3007,11.1972063 C11.3007,11.1972063 11.3719691,11.6307302 11.2357491,11.9403175 C11.0916945,12.2760635 10.64462,12.4871111 10.64462,12.4871111 L3.45377091,15.2114286 C3.45377091,15.2114286 3.32867091,15.2424127 3.24602909,15.2114286 C3.1692,15.176381 3.14948727,15.0918095 3.14948727,15.0918095 L2.93037273,14.2900317 C2.93037273,14.2900317 2.89473818,14.1937778 2.94149273,14.1071746 C2.97889636,14.0337778 3.05244,13.984254 3.05244,13.984254 L9.98626545,8.99250794 C9.98626545,8.99250794 10.2309055,8.78171429 10.5407491,8.81244444" id="Fill-4" fill="#F08C00"></path>
                    <path d="M17.4691662,8.81244444 C17.1171171,8.84647619 17.0602535,9.18222222 17.0602535,9.18222222 L16.7092153,11.1972063 C16.7092153,11.1972063 16.6379462,11.6307302 16.7741662,11.9403175 C16.9182207,12.2760635 17.3652953,12.4871111 17.3652953,12.4871111 L24.5561444,15.2114286 C24.5561444,15.2114286 24.6809916,15.2424127 24.7638862,15.2114286 C24.8407153,15.176381 24.860428,15.0918095 24.860428,15.0918095 L25.0795425,14.2900317 C25.0795425,14.2900317 25.1151771,14.1937778 25.0684225,14.1071746 C25.0310189,14.0337778 24.9574753,13.984254 24.9574753,13.984254 L18.0236498,8.99250794 C18.0236498,8.99250794 17.7790098,8.78171429 17.4691662,8.81244444" id="Fill-6" fill="#F08C00"></path>
                    <path d="M0.0145570909,19.270781 C0.043368,19.1887492 0.196773455,19.1204317 0.196773455,19.1204317 L11.0322025,13.4165587 C12.1424335,12.8370032 12.1383898,11.502654 12.1383898,11.502654 L12.3074644,7.74366984 L12.3074644,7.74189206 C12.2341735,7.03789206 11.4373244,7.33833651 11.255108,7.41833651 L4.40367164,10.9350349 C4.40367164,10.9350349 4.31142618,10.9937016 4.19036982,10.958654 C4.09862982,10.9350349 4.05187527,10.8370032 4.05187527,10.8370032 L3.75239345,10.0822095 C3.75239345,10.0822095 3.701848,9.96132063 3.72990073,9.88487619 C3.76098618,9.80843175 3.83276073,9.75179683 3.83276073,9.75179683 L11.4623444,3.37947937 C12.2935644,2.72271746 12.5152062,2.05224127 12.5751025,1.77338413 C12.5751025,1.77338413 12.7080371,1.2408127 12.8419825,0.912177778 C12.8465316,0.901003175 12.8515862,0.890336508 12.856388,0.879415873 C12.8892425,0.80271746 12.9220971,0.735669841 12.9524244,0.69808254 L12.9541935,0.69808254 C13.178868,0.353701587 13.5647825,0.125638095 14.0052862,0.125638095 C14.4455371,0.125638095 14.8314516,0.353701587 15.0563789,0.69808254 L15.0573898,0.69808254 C15.0872116,0.734653968 15.1190553,0.79992381 15.1511516,0.873828571 C15.1574698,0.888304762 15.163788,0.902273016 15.1698535,0.917003175 C15.3032935,1.24589206 15.4349644,1.77338413 15.4349644,1.77338413 C15.4948607,2.05224127 15.7159971,2.72271746 16.5472171,3.37947937 L24.1770535,9.75179683 C24.1770535,9.75179683 24.2490807,9.80843175 24.2799135,9.88487619 C24.3079662,9.96132063 24.2574207,10.0822095 24.2574207,10.0822095 L23.9579389,10.8370032 C23.9579389,10.8370032 23.9114371,10.9350349 23.8194444,10.958654 C23.698388,10.9937016 23.6063953,10.9350349 23.6063953,10.9350349 L16.7547062,7.41833651 C16.5724898,7.33833651 15.7756407,7.03789206 15.7026025,7.74189206 L15.7026025,7.74366984 L15.8716771,11.502654 C15.8716771,11.502654 15.8673807,12.8370032 16.9776116,13.4165587 L27.8130407,19.1204317 C27.8130407,19.1204317 27.9664462,19.1887492 27.9952571,19.270781 C28.0291225,19.3614476 27.9932353,19.5255111 27.9932353,19.5255111 L27.5941789,21.1674159 C27.5941789,21.1674159 27.5648625,21.3152254 27.4546735,21.3657651 C27.3214862,21.430781 27.1627735,21.3713524 27.1627735,21.3713524 L20.5054316,18.9721143 C20.4205153,18.950273 20.2223771,18.9233524 20.2774716,19.0963048 C20.2774716,19.0963048 20.2767135,19.0973206 20.2767135,19.1011302 L25.7118662,24.3224635 C25.7118662,24.3224635 25.8341862,24.4240508 25.8480862,24.5637333 C25.8594589,24.6963048 25.7318316,24.8469079 25.7318316,24.8469079 L23.5588825,27.3782095 C23.5588825,27.3782095 23.3385044,27.6397968 23.0344735,27.6331937 C22.7506607,27.6273524 22.5065262,27.3393524 22.5065262,27.3393524 L16.8942116,20.358527 C16.7739135,20.1568762 16.2538007,20.0644317 16.2692171,20.6122413 L16.7630462,31.5029079 C16.7630462,31.5029079 16.767848,31.7223365 16.6617025,31.8401778 C16.5264935,31.9912889 16.2727553,31.9999238 16.2727553,31.9999238 L11.7373116,31.9999238 C11.7373116,31.9999238 11.483068,31.9912889 11.3481116,31.8401778 C11.2419662,31.7223365 11.246768,31.5029079 11.246768,31.5029079 L11.7405971,20.6122413 C11.7560135,20.0644317 11.2359007,20.1568762 11.1156025,20.358527 L5.50354073,27.3393524 C5.50354073,27.3393524 5.25915345,27.6273524 4.97534073,27.6331937 C4.67130982,27.6397968 4.45118436,27.3782095 4.45118436,27.3782095 L2.27798255,24.8469079 C2.27798255,24.8469079 2.150608,24.6963048 2.16198073,24.5637333 C2.17588073,24.4240508 2.297948,24.3224635 2.297948,24.3224635 L7.73310073,19.1011302 C7.73310073,19.0973206 7.73234255,19.0973206 7.73234255,19.0973206 C7.78768982,18.9233524 7.58955164,18.950273 7.50463527,18.9721143 L0.847040727,21.3713524 C0.847040727,21.3713524 0.688328,21.430781 0.555393455,21.3657651 C0.444951636,21.3152254 0.415635273,21.1674159 0.415635273,21.1674159 L0.0165789091,19.5255111 C0.0165789091,19.5255111 -0.0193083636,19.3614476 0.0145570909,19.270781" id="Fill-8" fill="#2F60E2"></path>
                    <path d="M115.009788,10.6291556 C115.009788,10.6291556 115.031775,10.3828063 114.939782,10.2720762 C114.813671,10.1242667 114.60037,10.1202032 114.60037,10.1202032 L112.066779,10.1202032 L112.033671,10.2832508 L112.033671,10.2832508 L112.032408,10.2896 L112.003597,10.4310603 L112.00385,10.4315683 L111.861817,11.1398857 L106.200221,11.1398857 L105.641946,13.9015365 L110.476366,13.9015365 L111.319717,13.9015365 L110.819822,16.3927111 C110.797835,16.4767746 110.687141,16.8003302 110.20797,16.9143619 L110.125581,16.9143619 L110.104857,16.9143619 C109.781366,16.8775365 109.666122,16.6243302 109.627961,16.4871873 L109.612544,16.4132825 C109.609764,16.4023619 109.605468,16.3927111 109.605468,16.3927111 L109.605468,16.3967746 L109.265297,15.257727 C109.265297,15.257727 109.21273,14.9146159 108.964299,14.7731556 C108.771721,14.6614095 108.336019,14.6449016 108.336019,14.6449016 L106.384711,14.6352508 C106.384711,14.6352508 106.275028,14.6327111 106.21589,14.7063619 C106.144115,14.7970286 106.169135,14.9019175 106.169135,14.9019175 L106.597761,16.4767746 C106.601551,16.6489651 106.504504,16.889727 105.967964,16.9143619 L105.936121,16.9143619 L103.472535,16.9143619 L102.906426,19.7636317 L106.268457,19.7636317 C106.469122,19.8096 106.729937,19.9287111 106.580322,20.2596317 C105.939153,21.3255365 104.763213,22.5877587 102.647886,23.4449016 L102.108819,26.4534095 C102.108819,26.4534095 108.021879,24.9412825 110.120526,19.9914413 L110.12735,19.9914413 L108.84299,26.2576 L111.896441,26.2576 L113.064293,20.4610286 C114.043359,24.6642032 118.905073,27.009854 118.905073,27.009854 L119.553066,23.7034413 C117.549444,22.8856635 116.514021,21.4192508 115.967371,20.3337905 C115.799055,19.9193143 116.142259,19.7588063 116.343682,19.7636317 L120.318577,19.7636317 L120.889235,16.9143619 L118.413519,16.9143619 C118.104939,16.8404571 118.268453,16.5285841 118.268453,16.5285841 L118.266431,16.5285841 L119.108266,15.121854 C119.108266,15.121854 119.164624,15.001219 119.121661,14.9364571 C119.080466,14.8810921 118.924786,14.8810921 118.924786,14.8810921 L116.92445,14.8810921 C116.92445,14.8810921 116.461706,14.8496 116.112942,15.0296635 C115.854655,15.1642667 115.651462,15.5208381 115.651462,15.5208381 L115.126042,16.329981 L115.124779,16.3289651 C115.124779,16.3289651 115.109868,16.3536 115.088639,16.3927111 L115.058059,16.4440127 C114.957473,16.6040127 114.756302,16.8686476 114.481335,16.9143619 L114.342335,16.9143619 C114.329193,16.9143619 114.319842,16.9143619 114.300635,16.9108063 C113.971584,16.8991238 113.865691,16.7363302 113.835617,16.5864889 L114.353202,13.9015365 L120.042346,13.9015365 L120.583182,11.1398857 L114.910971,11.1398857 L115.009788,10.6291556 Z" id="Fill-10" fill="#2F60E2"></path>
                    <path d="M97.4965965,19.0396444 L101.138397,19.0396444 L101.709055,16.1878349 L95.1161584,16.1878349 L95.3845547,14.8120889 C95.3845547,14.8136127 95.4257493,14.6205968 95.4826129,14.3275175 C95.8240475,14.3280254 100.633447,14.3247238 100.633447,14.3247238 L101.197787,11.4767238 L96.0787965,11.4767238 L96.057062,11.4767238 C96.1346493,11.0739302 96.1879747,10.7986286 96.1879747,10.7986286 C96.1879747,10.7986286 96.2696056,10.4075175 96.0838511,10.2538667 C95.8859656,10.091327 95.6269202,10.1030095 95.6269202,10.1030095 L93.2479984,10.1030095 L93.0933293,10.8946286 C93.0933293,10.8918349 93.0475856,11.1265016 92.9770747,11.4767238 L87.5636565,11.4767238 L86.9972947,14.3247238 L92.3275656,14.3247238 L92.409702,14.3247238 L92.3851875,14.4522159 L92.039962,16.1878349 L85.1147293,16.1878349 L84.5481147,19.0396444 L87.9718111,19.0396444 C88.1151075,19.0889143 88.3812293,19.2260571 88.2225165,19.5922794 C88.2068475,19.6247873 88.2043202,19.6506921 88.2068475,19.6732952 C87.5793256,20.6779937 86.018482,22.3676444 83.6890947,23.3477079 L83.0724402,26.4420571 C83.0724402,26.4420571 89.5248202,24.6744381 91.3416765,19.6898032 L90.0325493,26.2696127 L93.1125365,26.2696127 L94.266742,20.4501841 C95.1972838,24.5347556 99.6526129,26.5842794 99.6526129,26.5842794 L100.284178,23.418819 C98.261602,22.4405333 97.4872456,20.6576762 97.1986311,19.5696762 L97.2064656,19.571454 C97.2064656,19.571454 97.002262,19.1419937 97.4965965,19.0396444" id="Fill-12" fill="#2F60E2"></path>
                    <g id="Group-16" transform="translate(121.050809, 11.174603)">
                        <mask id="mask-2" fill="white">
                            <use xlink:href="#path-1"></use>
                        </mask>
                        <g id="Clip-15"></g>
                        <path d="M17.6760937,0.132012698 L17.4099719,2.30953651 L2.90039372,2.30953651 L3.16651554,0.132012698 L17.6760937,0.132012698 Z M17.4360028,6.8256 L9.36263008,6.8256 L4.36747554,13.4226794 L12.7456374,13.4226794 C13.1952392,13.4226794 13.3756864,13.2129016 13.2879901,12.7936 L11.7584846,8.76134603 L14.695681,8.76134603 L16.3793501,13.5031873 C16.6795901,14.9010286 16.155181,15.5999492 14.8071337,15.5999492 L4.10135372,15.5999492 L0.794922809,15.5999492 L1.03147554,13.6647111 L6.18483735,6.8256 L1.70676281,6.8256 L1.9726319,4.64833016 L17.7021246,4.64833016 L17.4360028,6.8256 Z" id="Fill-14" stroke="#2F60E2" fill="#2F60E2" mask="url(#mask-2)"></path>
                    </g>
                </g>
            </g>
        </g>
    </g>
</svg>
