<?xml version="1.0" encoding="UTF-8"?>
<svg width="17px" height="14px" viewBox="0 0 17 14" version="1.1" xmlns="http://www.w3.org/2000/svg" xmlns:xlink="http://www.w3.org/1999/xlink">
    <!-- Generator: Sketch 47.1 (45422) - http://www.bohemiancoding.com/sketch -->
    <title>Shape</title>
    <desc>Created with Sketch.</desc>
    <defs></defs>
    <g id="Page-1" stroke="none" stroke-width="1" fill="none" fill-rule="evenodd">
        <g id="通知详情" transform="translate(-1382.000000, -45.000000)" fill-rule="nonzero" fill="#969696">
            <path d="M1396.51303,45 L1384.48508,45 C1383.11479,45 1382,46.1293092 1382,47.5180542 L1382,54.0535495 C1382,55.4422946 1383.11479,56.5716038 1384.48508,56.5716038 L1387.48497,56.5716038 C1387.81051,56.8901758 1387.70641,56.7890721 1387.80294,56.8825453 L1389.60287,58.6356452 C1389.84324,58.8702821 1390.15932,59 1390.49054,59 C1390.82175,59 1391.13783,58.8702821 1391.3782,58.6375528 L1393.17813,56.8844529 L1393.48853,56.5735114 L1396.51492,56.5735114 C1397.88521,56.5735114 1399,55.4442022 1399,54.0554571 L1399,47.5180542 C1398.99811,46.1293092 1397.88332,45 1396.51303,45 Z M1386.4686,51.800654 C1385.89702,51.800654 1385.43331,51.3294727 1385.43331,50.7514648 C1385.43331,50.1734569 1385.89702,49.7022755 1386.4686,49.7022755 C1387.04019,49.7022755 1387.5039,50.1734569 1387.5039,50.7514648 C1387.5039,51.3294727 1387.0383,51.800654 1386.4686,51.800654 Z M1390.49811,51.800654 C1389.92652,51.800654 1389.46281,51.3294727 1389.46281,50.7514648 C1389.46281,50.1734569 1389.92652,49.7022755 1390.49811,49.7022755 C1391.06969,49.7022755 1391.5334,50.1734569 1391.5334,50.7514648 C1391.5334,51.3294727 1391.06969,51.800654 1390.49811,51.800654 Z M1394.5295,51.800654 C1393.95792,51.800654 1393.49421,51.3294727 1393.49421,50.7514648 C1393.49421,50.1734569 1393.95792,49.7022755 1394.5295,49.7022755 C1395.10109,49.7022755 1395.5648,50.1734569 1395.5648,50.7514648 C1395.5648,51.3294727 1395.10109,51.800654 1394.5295,51.800654 Z" id="Shape"></path>
        </g>
    </g>
</svg>
