<?xml version="1.0" encoding="UTF-8"?>
<svg width="30px" height="30px" viewBox="0 0 30 30" version="1.1" xmlns="http://www.w3.org/2000/svg" xmlns:xlink="http://www.w3.org/1999/xlink">
    <!-- Generator: Sketch 47.1 (45422) - http://www.bohemiancoding.com/sketch -->
    <title>默认头像</title>
    <desc>Created with Sketch.</desc>
    <defs></defs>
    <g id="Page-1" stroke="none" stroke-width="1" fill="none" fill-rule="evenodd">
        <g id="通知详情" transform="translate(-1505.000000, -35.000000)">
            <g id="Group" transform="translate(1505.000000, 35.000000)">
                <g id="默认头像">
                    <g id="Shape">
                        <path d="M0,14.8148148 C1.01453063e-15,22.9968111 6.71572875,29.6296296 15,29.6296296 C23.2842712,29.6296296 30,22.9968111 30,14.8148148 C30,6.63281852 23.2842712,5.01002779e-16 15,0 C6.71572875,-5.01002779e-16 1.01453063e-15,6.63281852 0,14.8148148 Z" fill="#FFFFFF" fill-rule="nonzero"></path>
                        <path d="M12.911959,29.5018353 C12.6397228,29.4686898 12.3724363,29.4189715 12.1051499,29.3692532 C12.3724364,29.4189715 12.6397228,29.4631655 12.911959,29.5018353 Z M19.3317838,28.7892068 L18.7724622,28.9825556 C18.9605526,28.9217889 19.1387436,28.8610221 19.3317838,28.7892068 Z M15.7333161,29.5791748 C15.3769342,29.5791748 15.0106527,29.6233688 14.6394215,29.6233688 L14.6839693,29.6233688 C15.7474685,29.6233837 16.8078775,29.4955893 17.8468591,29.2421955 C17.1725605,29.4017625 16.4897192,29.5124787 15.8026126,29.5736506 L15.7333161,29.5791748 Z M18.5497235,29.0709437 L18.0943465,29.1980015 L18.5497235,29.0709437 Z M20,28.5185185 C19.8960553,28.5627125 19.7921105,28.6124308 19.683216,28.6511006 C19.7921105,28.617955 19.8960553,28.5682368 20,28.5185185 Z M14.4414315,29.6810809 L13.7583661,29.5957476 L14.4414315,29.6810809 Z M18.6437687,29.0440941 L18.7774119,28.9825556 L18.5546732,29.0825556 L18.6437687,29.0440941 Z M19.3317838,28.7892068 C19.4505778,28.7450128 19.5693718,28.706343 19.683216,28.6566248 C19.5693718,28.706343 19.4505778,28.7450128 19.3317838,28.7892068 Z M17.8716078,29.2580711 L18.0151505,29.2035257 L18.0943465,29.2035257 L17.8468591,29.3035257 L17.8716078,29.2580711 Z M11.4814815,29.231147 C11.689371,29.2808652 11.8972604,29.3305835 12.1051499,29.3692532 C11.8972604,29.3305835 11.7141197,29.2808652 11.4814815,29.231147 Z M13.0852003,29.5352625 L13.1594465,29.5352625 C13.3425872,29.5352625 13.5257279,29.5727625 13.7088687,29.5852625 L13.7583661,29.5852625 C13.4762304,29.5852625 13.1940947,29.5290125 12.911959,29.4852625 L13.0852003,29.5352625 Z" fill="#FFFFFF" fill-rule="nonzero"></path>
                        <path d="M17.1699928,16.2962963 L12.8756913,16.2962963 C8.17023322,18.2513305 6.78448344,19.307049 6.21089471,19.7811448 C5.42411368,20.4605192 4.91651305,23.2415553 4.44444444,25.4849571 C6.33323077,27.2562414 8.66879314,28.5230186 11.2209132,29.1604214 C11.4087254,29.2092973 11.5965376,29.248398 11.7843499,29.2874987 C11.9721621,29.3265994 12.2107344,29.3754752 12.4239267,29.4096883 C12.637119,29.4439014 12.9721354,29.4976648 13.2513157,29.5269903 C13.5304961,29.5563158 13.8299805,29.5856414 14.1193129,29.6051917 L14.8198018,29.6296296 L15.022842,29.6296296 C15.4035425,29.6296296 15.779167,29.6296296 16.1446395,29.590529 L16.2157036,29.590529 C16.9203368,29.5364071 17.6205959,29.4384509 18.3120943,29.2972738 L18.5658946,29.2435104 L19.0328872,29.1310959 L19.2613075,29.0675573 L19.8348962,28.8964918 C19.9567204,28.8573911 20.0785445,28.823178 20.1952927,28.7791897 C20.3120408,28.7352015 20.413561,28.7009884 20.5201571,28.6618877 C22.3925621,27.9710357 24.1040539,26.9294312 25.5555556,25.5973716 C25.0479549,23.3344194 24.6063423,20.4263061 23.7840293,19.7322689 C23.2205926,19.2777235 21.8754508,18.2513305 17.1699928,16.2962963 L17.1699928,16.2962963 Z" fill="#F7B614" fill-rule="nonzero"></path>
                        <path d="M17.037037,12.037147 C17.037037,9.32095099 12.5925926,9.32095099 12.5925926,12.037147 L12.5925926,17.0547019 C13.1236109,17.744196 13.9445671,18.1481481 14.8148148,18.1481481 C15.6850626,18.1481481 16.5060188,17.744196 17.037037,17.0547019 L17.037037,12.037147 Z" fill="#FFDECC" fill-rule="nonzero"></path>
                        <path d="M17.037037,12.0203985 C17.037037,9.32653384 12.5925926,9.32653384 12.5925926,12.0203985 L12.5925926,15.3460968 C13.2268214,15.8665277 13.9978733,16.1962216 14.8148148,16.2962963 C15.6327137,16.1997365 16.4047276,15.8696312 17.037037,15.3460968 L17.037037,12.0203985 Z" fill="#F7C5AA" fill-rule="nonzero"></path>
                        <path d="M14.8173219,18.3319548 L13.0623362,20 L10.7407407,16.7852219 L12.3402849,15.9259259 L14.8173219,18.3319548 L14.8173219,18.3319548 Z M14.8173219,18.3319548 L16.5672935,20 L18.8888889,16.7852219 L17.2893447,15.9259259 L14.8173219,18.3319548 L14.8173219,18.3319548 Z" fill="#FFFFFF" fill-rule="nonzero"></path>
                        <path d="M21.1111111,22.5925926 L21.1111111,28.1481481 C21.3645224,28.0479191 21.5984406,27.9381443 21.8518519,27.8235968 L21.1111111,22.5925926 Z" fill="#CE9413" fill-rule="nonzero"></path>
                        <path d="M14.8234154,3.7037037 C22.3086296,3.7037037 19.6232842,12.7005441 19.1219535,13.4167105 C18.5908409,14.212451 16.0395145,16.2962963 14.8234154,16.2962963 C13.6073162,16.2962963 11.0559899,14.212451 10.5199135,13.4167105 C9.98383718,12.6209701 7.33820112,3.7037037 14.8234154,3.7037037 Z" fill="#FFDECC" fill-rule="nonzero"></path>
                        <path d="M9.29902161,9.28250711 C8.91948992,9.42166625 8.76669143,10.0916918 8.99835366,10.7977955 C9.23001589,11.5038993 9.71305623,11.9626091 10.1073749,11.828604 C10.5016935,11.6945989 10.6347761,10.9936491 10.4080428,10.3133156 C10.1813096,9.63298197 9.69334026,9.14850199 9.29902161,9.28250711 Z M20.7046887,9.28250711 C21.0842204,9.42166625 21.2320899,10.0916918 21.0004277,10.7977955 C20.7687655,11.5038993 20.2906541,11.9626091 19.8914065,11.828604 C19.4921589,11.6945989 19.3985082,11.0194193 19.5956675,10.3133156 C19.7928268,9.60721177 20.3054411,9.14850199 20.7046887,9.28250711 Z" fill="#FFDECC" fill-rule="nonzero"></path>
                        <path d="M11.4799513,6.64054205 C12.7877242,7.54300696 17.3119118,7.39586595 18.3318737,6.67487494 C19.0791725,8.68580215 19.6699426,9.40188845 19.9426056,11.0891054 C20.3162551,10.0444042 21.1948361,4.47266441 18.3672189,3.88410034 C15.8021661,2.11840815 11.8334034,3.17782347 10.6266168,4.66394773 C9.13706844,6.52773392 9.66219737,9.35284143 10.0156495,11.4814815 C9.92981113,8.74956329 11.0255128,8.96537011 11.474902,6.64054205 L11.4799513,6.64054205 Z" fill="#CC7B53" fill-rule="nonzero"></path>
                    </g>
                </g>
            </g>
        </g>
    </g>
</svg>
